<?xml version="1.0" encoding="utf-8"?>
<!-- Generator: Adobe Illustrator 18.0.0, SVG Export Plug-In . SVG Version: 6.00 Build 0)  -->
<!DOCTYPE svg PUBLIC "-//W3C//DTD SVG 1.1//EN" "http://www.w3.org/Graphics/SVG/1.1/DTD/svg11.dtd">
<svg version="1.1" id="Layer_1" xmlns="http://www.w3.org/2000/svg" xmlns:xlink="http://www.w3.org/1999/xlink" x="0px" y="0px"
	 viewBox="0 0 860 369.1" enable-background="new 0 0 860 369.1" xml:space="preserve">
<g>
	<path fill="#FFFFFF" d="M146,190.3v-35.9h-27.9v38.4L146,190.3z M45.6,263l221.8-19.8l24.6-88.8l-24.6-88.9L45.6,45.8L45.6,263z
		 M253.4,82.5l19.9,71.9H245l0,0l-15.5,55.7l-43.7,3.9v-27.3l22.7-2l8.2-30.3l0,0h-43.5v60.8L91,222.5v-68.1H63.8V65.6L253.4,82.5z"
		/>
	<path opacity="0.8" fill="#FFFFFF" enable-background="new    " d="M173.3,120.9v33.5h43.5l-8.2-30.3L173.3,120.9z M63.8,154.4H91
		V86.2l27.2,2.4v65.7H146V91.1l83.5,7.5l15.5,55.8h28.2l-19.9-71.9L63.8,65.6L63.8,154.4L63.8,154.4z"/>
	<g opacity="0.2">
		<polygon fill="#FFFFFF" points="91,154.4 91,222.5 173.3,215.2 173.3,154.4 146,154.4 146,190.3 118.2,192.8 118.2,154.4 		"/>
		<polygon fill="#FFFFFF" points="216.7,154.4 216.7,154.4 208.6,184.7 185.9,186.7 185.9,214 229.6,210.1 245.1,154.4 245,154.4 		
			"/>
	</g>
</g>
<path opacity="0.8" fill="#FFFFFF" enable-background="new    " d="M804.5,133.3H316.6c0-4-3-6.4-6.4-6.4c-3.4,0-6.3,2.7-6.3,6.1
	c0-3.4-2.8-6.2-6.2-6.2c-3.4,0-6.2,2.8-6.2,6.2c0-3.4-3-6.2-6.4-6.2c-3.4,0-6.4,2.8-6.4,6.2v42.9c0,3.4,3,6.2,6.4,6.2
	c3.4,0,6.3-2.8,6.3-6.2c0,3.4,2.8,6.2,6.2,6.2c3.4,0,6.2-2.8,6.2-6.2c0,3.4,3,6.2,6.4,6.2c3.4,0,6.4-2.8,6.4-6.2v-0.5h487.8
	c6.6,0,12.2-5.5,12.2-12.1v-18.3C816.6,138.3,811.1,133.3,804.5,133.3z"/>
<text transform="matrix(1 0 0 1 310.0601 292.9736)" opacity="0.8" fill="#FFFFFF" enable-background="new    " font-family="'Montserrat-Bold'" font-size="136">HTACG</text>
</svg>
